<svg xmlns="http://www.w3.org/2000/svg" viewBox="0 0 512 512" width="512" height="512">
  <rect width="512" height="512" rx="96" fill="#0b1020"/>
  <g transform="translate(256 256)">
    <path d="M-90-150h180v40c40 0 70 24 70 64 0 46-40 78-92 84-14 28-38 48-68 54v44h44a30 30 0 0 1 30 30v18h-168v-18a30 30 0 0 1 30-30h44v-44c-30-6-54-26-68-54-52-6-92-38-92-84 0-40 30-64 70-64zm-30 70c-18 0-28 10-28 28 0 22 18 38 44 44a230 230 0 0 1-16-72zm240 0h-16a230 230 0 0 1-16 72c26-6 44-22 44-44 0-18-10-28-28-28z" fill="#fbbf24"/>
  </g>
</svg>
